<?xml version="1.0" encoding="UTF-8"?>
<svg width="6.35mm" height="6.35mm" version="1.1" viewBox="0 0 6.3499683 6.3499636" xmlns="http://www.w3.org/2000/svg"><!--Created by: Josélio de S. C. Júnior - 2021 - joseliojunior-->
<path transform="scale(.26458)" d="m13.666 0c-0.56783 0-1.0254 0.45756-1.0254 1.0254v0.68164c0 0.56783 0.45756 1.0254 1.0254 1.0254h5.668l-6.2422 6.2441c-0.40152 0.40151-0.40152 1.0477 0 1.4492l0.48242 0.48438c0.40151 0.40151 1.0477 0.39956 1.4492-0.001953l6.2441-6.2422v5.668c0 0.56783 0.45561 1.0254 1.0234 1.0254h0.68359c0.56783 0 1.0254-0.45756 1.0254-1.0254l-0.001953-8.625 0.001953-0.68359c0-0.28391-0.11356-0.5413-0.29883-0.72656-0.18526-0.18526-0.44265-0.29883-0.72656-0.29883h-0.68359-8.625zm-12.641 12.641c-0.56783 0-1.0254 0.45756-1.0254 1.0254l0.0019531 8.625-0.0019531 0.68359c0 0.28392 0.11357 0.5413 0.29883 0.72656 0.18526 0.18526 0.44265 0.29883 0.72656 0.29883h0.68359 8.625c0.56783 0 1.0254-0.45756 1.0254-1.0254v-0.68164c0-0.56783-0.45756-1.0254-1.0254-1.0254h-5.668l6.2422-6.2441c0.40152-0.40152 0.40152-1.0477 0-1.4492l-0.48242-0.48438c-0.40152-0.40151-1.0477-0.39956-1.4492 0.001953l-6.2441 6.2422v-5.668c0-0.56783-0.45561-1.0254-1.0234-1.0254h-0.68359z" fill-rule="evenodd"/>
</svg>
