<?xml version="1.0" encoding="UTF-8"?>
<svg width="6.35mm" height="6.35mm" version="1.1" viewBox="0 0 6.3499999 6.3499999" xmlns="http://www.w3.org/2000/svg"><!--Created by: Josélio de S. C. Júnior - 2021 - joseliojunior-->
<g transform="translate(-13.518 -192.99)">
<g transform="matrix(.89853 0 0 .89853 3.078 19.817)" fill-rule="evenodd" stroke-width=".26458">
<circle cx="15.153" cy="196.26" r="3.5336" fill="#1a1a1a"/>
<g transform="matrix(.80657 0 0 .80657 3.144 37.866)">
<path d="m15.586 196.52a2.1394 2.1394 0 0 0 -0.12764 0.0915 2.1394 2.1394 0 0 0 -0.16071 0.14107 2.1394 2.1394 0 0 0 -0.14573 0.15607 2.1394 2.1394 0 0 0 -0.12971 0.17053 2.1394 2.1394 0 0 0 -1e-3 2e-3v2.973a3.5336 3.5336 0 0 0 0.50798 -0.0398 3.5336 3.5336 0 0 0 2.9848 -2.9864 3.5336 3.5336 0 0 0 0.04082 -0.50746h-0.56121z" fill="#ff0"/>
<path d="m14.191 196.52a2.1394 2.1394 0 0 1 0.12764 0.0915 2.1394 2.1394 0 0 1 0.16071 0.14107 2.1394 2.1394 0 0 1 0.14573 0.15607 2.1394 2.1394 0 0 1 0.12971 0.17053 2.1394 2.1394 0 0 1 1e-3 2e-3v2.9729a3.5336 3.5336 0 0 1 -0.50798 -0.0398 3.5336 3.5336 0 0 1 -2.9848 -2.9864 3.5336 3.5336 0 0 1 -0.04083 -0.50746h0.56121z" fill="#0ff"/>
<path d="m14.191 196.25a2.1394 2.1394 0 0 0 0.12764 -0.0915 2.1394 2.1394 0 0 0 0.16071 -0.14107 2.1394 2.1394 0 0 0 0.14573 -0.15607 2.1394 2.1394 0 0 0 0.12971 -0.17053 2.1394 2.1394 0 0 0 1e-3 -2e-3v-2.9729a3.5336 3.5336 0 0 0 -0.50798 0.0398 3.5336 3.5336 0 0 0 -2.9848 2.9864 3.5336 3.5336 0 0 0 -0.04083 0.50746h0.56121z" fill="#f00"/>
<path d="m15.586 196.25a2.1394 2.1394 0 0 1 -0.12764 -0.0915 2.1394 2.1394 0 0 1 -0.16071 -0.14107 2.1394 2.1394 0 0 1 -0.14573 -0.15607 2.1394 2.1394 0 0 1 -0.12971 -0.17053 2.1394 2.1394 0 0 1 -1e-3 -2e-3v-2.9729a3.5336 3.5336 0 0 1 0.50799 0.0398 3.5336 3.5336 0 0 1 2.9848 2.9864 3.5336 3.5336 0 0 1 0.04083 0.50746h-0.56121z" fill="#0f0"/>
</g>
</g>
</g>
</svg>
