<?xml version="1.0" encoding="UTF-8"?>
<svg width="5.0813mm" height="6.3502mm" version="1.1" viewBox="0 0 5.0812745 6.3501639" xmlns="http://www.w3.org/2000/svg" xmlns:cc="http://creativecommons.org/ns#" xmlns:dc="http://purl.org/dc/elements/1.1/" xmlns:rdf="http://www.w3.org/1999/02/22-rdf-syntax-ns#"><!--Created by: Josélio de S. C. Júnior - 2021 - joseliojunior-->
<g transform="translate(-8.1162 -192.64)">
<path transform="matrix(.26458 0 0 .26458 8.1162 192.64)" d="m8.7441 0c-0.66258 0.0034016-1.3199 0.57999-1.3086 2.9004 8.012e-4 0.16479 0.00492 0.31955 0.011719 0.4668-0.00794 0.038551-0.011719 0.077944-0.011719 0.11914v5.4414l-5.0605-6.707c-0.34743-0.46043-0.88153-0.64107-1.1953-0.4043-0.31379 0.23678-0.28493 0.79933 0.0625 1.2598l6.1934 8.207v5.0723a4.8692 4.1362 0 0 0 -2.5664 -0.62695 4.8692 4.1362 0 0 0 -4.8691 4.1367 4.8692 4.1362 0 0 0 4.8691 4.1348 4.8692 4.1362 0 0 0 4.8574 -3.9199c0.00831-0.03931 0.011719-0.07952 0.011719-0.12109v-5.623l6.5156 8.6348c0.34743 0.46043 0.87957 0.63912 1.1934 0.40234 0.31379-0.23678 0.28689-0.79738-0.06055-1.2578l-7.6484-10.137v-5.7695l6.6016 4.3164c0.1711 0.11187 0.39985 0.06379 0.51172-0.10742l2.293-3.5078c0.11187-0.17121 0.06368-0.39984-0.10742-0.51172l-8.6738-5.6719c-0.02041-0.015118-0.04261-0.021864-0.06445-0.033203-0.07771-0.058961-0.15801-0.11701-0.24414-0.16992-0.13701-0.084283-0.72592-0.52642-1.3105-0.52344z" fill="#000000" fill-rule="evenodd" stroke-width=".03665"/>
</g>
</svg>
