<?xml version="1.0" encoding="UTF-8"?>
<svg width="5.0813mm" height="6.3502mm" version="1.1" viewBox="0 0 5.0812745 6.3501639" xmlns="http://www.w3.org/2000/svg"><!--Created by: Josélio de S. C. Júnior - 2021 - joseliojunior-->
<g transform="translate(-8.1162 -192.64)">
<path d="m10.43 192.64c-0.17531 9e-4 -0.34923 0.15336-0.34623 0.7673 2.12e-4 0.0436 0.0014 0.0845 0.0032 0.12346-0.0021 0.0102-0.0032 0.0208-0.0032 0.0317v3.4046a1.2883 1.0944 0 0 0 -0.67879 -0.16582 1.2883 1.0944 0 0 0 -1.2883 1.0944 1.2883 1.0944 0 0 0 1.2883 1.0944 1.2883 1.0944 0 0 0 1.2849 -1.0372c0.0022-0.0104 0.0034-0.0212 0.0034-0.0322v-3.638l1.7466 1.142c0.04527 0.0296 0.10555 0.017 0.13515-0.0283l0.60688-0.92818c0.0296-0.0453 0.01699-0.10553-0.02828-0.13513l-2.2952-1.5007c-0.0054-4e-3 -0.01106-6e-3 -0.01684-9e-3 -0.02056-0.0156-0.04208-0.0306-0.06487-0.0446-0.03625-0.0223-0.192-0.13951-0.34669-0.13872z"
fill="#000000" fill-rule="evenodd" stroke-width=".009697"/>
</g>
</svg>
